<svg xmlns="http://www.w3.org/2000/svg" viewBox="0 0 1920 1080"><defs><style>.cls-1{fill:none;stroke:#fff92c;}.cls-1,.cls-10,.cls-3,.cls-6,.cls-7{stroke-miterlimit:10;}.cls-2{fill:#ff3;}.cls-3{fill:#cff;}.cls-10,.cls-3{stroke:#666;}.cls-4,.cls-7{fill:#9fc;}.cls-5{fill:#fff;}.cls-6,.cls-8{fill:#ff0;}.cls-6,.cls-7{stroke:#fff;}.cls-9{fill:#3cc;}.cls-10{fill:#03c;}.cls-11{fill:#699;}.cls-12{fill:#666;}.cls-13{fill:#fc3;}</style></defs><g id="sol_varm"><line class="cls-1" x1="390.5" y1="305.5" x2="388.5" y2="305.5"/><circle class="cls-2" cx="153.62" cy="154.75" r="75.62"/><rect class="cls-2" x="147.5" y="241.5" width="10" height="51" rx="5"/><rect class="cls-2" x="147.5" y="20.5" width="10" height="51" rx="5"/><rect class="cls-2" x="261.5" y="131.5" width="10" height="51" rx="5" transform="translate(109.5 423.5) rotate(-90)"/><rect class="cls-2" x="33.5" y="126.5" width="10" height="51" rx="5" transform="translate(-113.5 190.5) rotate(-90)"/><rect class="cls-2" x="237.88" y="220.15" width="10.15" height="60.99" rx="5" transform="translate(-106.07 245.21) rotate(-45)"/><rect class="cls-2" x="57.66" y="212.61" width="10" height="60.69" rx="5" transform="translate(-79.19 449.91) rotate(-131.11)"/><rect class="cls-2" x="56.05" y="41.41" width="10" height="60.2" rx="5" transform="translate(-32.69 64.12) rotate(-45)"/><rect class="cls-2" x="249.92" y="45.33" width="10" height="60.58" rx="5" transform="translate(365.56 317.4) rotate(-131.11)"/></g><g id="sky"><path class="cls-3" d="M620,157a72.67,72.67,0,0,1-14.5,43.68V235.5h-262V200.83a73,73,0,0,1,75.55-115.2,70,70,0,0,1,110.3.52A73.06,73.06,0,0,1,620,157Z"/></g><g id="sol_sky"><circle class="cls-2" cx="529.35" cy="467.63" r="75.62"/><rect class="cls-2" x="523.23" y="554.38" width="10" height="51" rx="5"/><rect class="cls-2" x="523.23" y="333.38" width="10" height="51" rx="5"/><rect class="cls-2" x="637.23" y="444.38" width="10" height="51" rx="5" transform="translate(172.35 1112.12) rotate(-90)"/><rect class="cls-2" x="409.23" y="439.38" width="10" height="51" rx="5" transform="translate(-50.65 879.12) rotate(-90)"/><rect class="cls-2" x="613.61" y="533.03" width="10.15" height="60.99" rx="5" transform="translate(-217.27 602.53) rotate(-45)"/><rect class="cls-2" x="433.39" y="525.49" width="10" height="60.69" rx="5" transform="translate(307.86 1251.62) rotate(-131.11)"/><rect class="cls-2" x="431.78" y="354.3" width="10" height="60.2" rx="5" transform="translate(-143.88 421.44) rotate(-45)"/><rect class="cls-2" x="625.65" y="358.21" width="10" height="60.58" rx="5" transform="translate(752.61 1119.1) rotate(-131.11)"/><path class="cls-3" d="M691,541.18a59.06,59.06,0,0,1-11.79,35.51V605h-213V576.81a59.37,59.37,0,0,1,61.42-93.66,56.92,56.92,0,0,1,89.68.42A59.43,59.43,0,0,1,691,541.18Z"/></g><g id="sol_kold"><circle class="cls-4" cx="155.04" cy="461.63" r="75.12"/><path class="cls-5" d="M155,387a74.62,74.62,0,1,1-74.62,74.61A74.69,74.69,0,0,1,155,387m0-1a75.62,75.62,0,1,0,75.61,75.61A75.62,75.62,0,0,0,155,386Z"/><rect class="cls-6" x="148.92" y="548.38" width="10" height="51" rx="5"/><rect class="cls-6" x="148.92" y="327.38" width="10" height="51" rx="5"/><rect class="cls-6" x="262.92" y="438.38" width="10" height="51" rx="5" transform="translate(-195.96 731.81) rotate(-90)"/><rect class="cls-6" x="34.92" y="433.38" width="10" height="51" rx="5" transform="translate(-418.96 498.81) rotate(-90)"/><rect class="cls-7" x="239.3" y="527.03" width="10.15" height="60.99" rx="5" transform="translate(-322.66 336.1) rotate(-45)"/><rect class="cls-7" x="59.08" y="519.49" width="10" height="60.69" rx="5" transform="translate(-308.05 959.66) rotate(-131.11)"/><rect class="cls-7" x="57.48" y="348.3" width="10" height="60.2" rx="5" transform="translate(-249.27 155.01) rotate(-45)"/><rect class="cls-7" x="251.34" y="352.21" width="10" height="60.58" rx="5" transform="translate(136.71 827.15) rotate(-131.11)"/><circle class="cls-8" cx="155" cy="462" r="53"/></g><g id="sne"><path class="cls-3" d="M1580,157a72.67,72.67,0,0,1-14.5,43.68V235.5h-262V200.83a73,73,0,0,1,75.55-115.2,70,70,0,0,1,110.3.52A73.06,73.06,0,0,1,1580,157Z"/><path class="cls-9" d="M1369,244.5a4.51,4.51,0,0,1-4.5,4.5h-10.6l6.9,7.64a4.5,4.5,0,1,1-6.68,6L1348,255.9v9.6a4.5,4.5,0,0,1-9,0V254.1l-8.18,7.39a4.5,4.5,0,1,1-6-6.67l6.44-5.82h-8.73a4.5,4.5,0,0,1,0-9h11.14l-7.67-8.49a4.5,4.5,0,0,1,6.67-6l6.36,7v-9a4.5,4.5,0,0,1,9,0v10.34l8-7.18a4.5,4.5,0,0,1,6,6.68l-7.37,6.66h9.89A4.51,4.51,0,0,1,1369,244.5Z"/><path class="cls-9" d="M1454,241.5a4.51,4.51,0,0,1-4.5,4.5h-10.6l6.9,7.64a4.5,4.5,0,1,1-6.68,6L1433,252.9v9.6a4.5,4.5,0,0,1-9,0V251.1l-8.18,7.39a4.5,4.5,0,1,1-6-6.67l6.44-5.82h-8.73a4.5,4.5,0,0,1,0-9h11.14l-7.67-8.49a4.5,4.5,0,0,1,6.67-6l6.36,7v-9a4.5,4.5,0,0,1,9,0v10.34l8-7.18a4.5,4.5,0,0,1,6,6.68l-7.37,6.66h9.89A4.51,4.51,0,0,1,1454,241.5Z"/><path class="cls-9" d="M1409,198.5a4.51,4.51,0,0,1-4.5,4.5h-10.6l6.9,7.64a4.5,4.5,0,1,1-6.68,6L1388,209.9v9.6a4.5,4.5,0,0,1-9,0V208.1l-8.18,7.39a4.5,4.5,0,1,1-6-6.67l6.44-5.82h-8.73a4.5,4.5,0,0,1,0-9h11.14l-7.67-8.49a4.5,4.5,0,0,1,6.67-6l6.36,7v-9a4.5,4.5,0,0,1,9,0v10.34l8-7.18a4.5,4.5,0,0,1,6,6.68l-7.37,6.66h9.89A4.51,4.51,0,0,1,1409,198.5Z"/><path class="cls-9" d="M1548,244.5a4.51,4.51,0,0,1-4.5,4.5h-10.6l6.9,7.64a4.5,4.5,0,1,1-6.68,6L1527,255.9v9.6a4.5,4.5,0,0,1-9,0V254.1l-8.18,7.39a4.5,4.5,0,1,1-6-6.67l6.44-5.82h-8.73a4.5,4.5,0,0,1,0-9h11.14l-7.67-8.49a4.5,4.5,0,0,1,6.67-6l6.36,7v-9a4.5,4.5,0,0,1,9,0v10.34l8-7.18a4.5,4.5,0,0,1,6,6.68l-7.37,6.66h9.89A4.51,4.51,0,0,1,1548,244.5Z"/><path class="cls-9" d="M1505,198.5a4.51,4.51,0,0,1-4.5,4.5h-10.6l6.9,7.64a4.5,4.5,0,1,1-6.68,6L1484,209.9v9.6a4.5,4.5,0,0,1-9,0V208.1l-8.18,7.39a4.5,4.5,0,1,1-6-6.67l6.44-5.82h-8.73a4.5,4.5,0,0,1,0-9h11.14l-7.67-8.49a4.5,4.5,0,0,1,6.67-6l6.36,7v-9a4.5,4.5,0,0,1,9,0v10.34l8-7.18a4.5,4.5,0,0,1,6,6.68l-7.37,6.66h9.89A4.51,4.51,0,0,1,1505,198.5Z"/></g><g id="sky_regn"><path class="cls-3" d="M948,157a72.67,72.67,0,0,1-14.5,43.68V235.5h-262V200.83a73,73,0,0,1,75.55-115.2,70,70,0,0,1,110.3.52A73.06,73.06,0,0,1,948,157Z"/><path class="cls-10" d="M711.28,251.61a12.39,12.39,0,0,1-24.78,0c0-6.85,12.39-29.11,12.39-29.11S711.28,244.76,711.28,251.61Z"/><path class="cls-10" d="M817.24,217.24a12.4,12.4,0,0,1-24.79,0c0-6.85,12.4-29.11,12.4-29.11S817.24,210.39,817.24,217.24Z"/><path class="cls-10" d="M781.24,251.24a12.4,12.4,0,0,1-24.79,0c0-6.85,12.4-29.11,12.4-29.11S781.24,244.39,781.24,251.24Z"/><path class="cls-10" d="M746.24,217.24a12.4,12.4,0,0,1-24.79,0c0-6.85,12.4-29.11,12.4-29.11S746.24,210.39,746.24,217.24Z"/><path class="cls-10" d="M922.24,251.24a12.4,12.4,0,0,1-24.79,0c0-6.85,12.4-29.11,12.4-29.11S922.24,244.39,922.24,251.24Z"/><path class="cls-10" d="M887.24,217.24a12.4,12.4,0,0,1-24.79,0c0-6.85,12.4-29.11,12.4-29.11S887.24,210.39,887.24,217.24Z"/><path class="cls-10" d="M852.24,251.24a12.4,12.4,0,0,1-24.79,0c0-6.85,12.4-29.11,12.4-29.11S852.24,244.39,852.24,251.24Z"/></g><g id="overskyet"><path class="cls-11" d="M1255,137a57.68,57.68,0,0,1-11.52,34.69v27.66H1035.41V171.8a58,58,0,0,1,60-91.49,55.59,55.59,0,0,1,87.6.42A58,58,0,0,1,1255,137Z"/><path class="cls-12" d="M1244,199.84H1034.91V172A58,58,0,0,1,1023,136.6a58.51,58.51,0,0,1,72.22-56.85,56.09,56.09,0,0,1,88,.41A58.54,58.54,0,0,1,1255.5,137,57.94,57.94,0,0,1,1244,171.85Zm-208.07-1H1243V171.52l.1-.14A57,57,0,0,0,1254.5,137a57.53,57.53,0,0,0-71.37-55.78l-.32.08-.2-.26a55.09,55.09,0,0,0-86.81-.41l-.2.26-.31-.08A57.49,57.49,0,0,0,1024,136.6a56.91,56.91,0,0,0,11.81,34.9l.1.13Z"/><path class="cls-11" d="M1214,170.29a60,60,0,0,1-12,36v28.73H985.88v-28.6a60.24,60.24,0,0,1,62.33-95.05,57.75,57.75,0,0,1,91,.43A60.29,60.29,0,0,1,1214,170.29Z"/><path class="cls-12" d="M1202.54,235.56H985.38V206.62A60.11,60.11,0,0,1,973,169.88a60.75,60.75,0,0,1,75-59,58.25,58.25,0,0,1,91.39.43,60.74,60.74,0,0,1,63.13,95.22Zm-216.16-1h215.16V206.17l.1-.14a59.75,59.75,0,0,0-62.31-93.7l-.32.07-.2-.25a57.25,57.25,0,0,0-90.21-.43l-.2.25-.31-.07a59.73,59.73,0,0,0-61.82,94.25l.11.14Z"/><path class="cls-11" d="M1255,182.79a48.71,48.71,0,0,1-9.72,29.29v23.36H1069.56V212.18a49,49,0,0,1,50.67-77.26,46.94,46.94,0,0,1,74,.35,49,49,0,0,1,60.8,47.52Z"/><path class="cls-12" d="M1245.78,235.94H1069.06V212.35a49,49,0,0,1-10.06-29.9,49.48,49.48,0,0,1,61-48.09,47.44,47.44,0,0,1,74.36.35,49.47,49.47,0,0,1,51.38,77.54Zm-175.72-1h174.72v-23l.1-.14a48.48,48.48,0,0,0-50.55-76l-.32.08-.2-.26a46.45,46.45,0,0,0-73.19-.35l-.2.26-.31-.08a48.46,48.46,0,0,0-60.11,47,48,48,0,0,0,10,29.43l.1.14Z"/></g><g id="overskyet_lyn"><path class="cls-11" d="M1073,468.54a57.73,57.73,0,0,1-11.51,34.69v27.65H853.39V503.35a58,58,0,0,1,60-91.49,55.6,55.6,0,0,1,87.6.41,58,58,0,0,1,72,56.27Z"/><path class="cls-12" d="M1062,531.38H852.89V503.52A58,58,0,0,1,841,468.14,58.51,58.51,0,0,1,913.2,411.3a56.09,56.09,0,0,1,88,.41,58.5,58.5,0,0,1,72.3,56.83A58,58,0,0,1,1062,503.39Zm-208.08-1H1061V503.06l.09-.13a57.49,57.49,0,0,0-59.95-90.17l-.32.08-.2-.26a55.08,55.08,0,0,0-86.8-.41l-.2.25-.32-.08A57.53,57.53,0,0,0,842,468.14,56.91,56.91,0,0,0,853.79,503l.1.14Z"/><path class="cls-11" d="M1032,501.84a60,60,0,0,1-12,36v28.73H803.86V538a60.24,60.24,0,0,1,62.33-95,57.75,57.75,0,0,1,91,.43A60.25,60.25,0,0,1,1032,501.84Z"/><path class="cls-12" d="M1020.52,567.11H803.36V538.17A60.13,60.13,0,0,1,791,501.43a60.79,60.79,0,0,1,75-59,58.27,58.27,0,0,1,91.39.43,60.77,60.77,0,0,1,75.09,59,60.16,60.16,0,0,1-12,36.2Zm-216.16-1h215.16v-28.4l.1-.13a59.76,59.76,0,0,0-62.31-93.71L957,444l-.2-.26a57.27,57.27,0,0,0-90.22-.42l-.2.25-.31-.08a59.77,59.77,0,0,0-74.09,58,59.17,59.17,0,0,0,12.27,36.27l.11.13Z"/><path class="cls-11" d="M1073,514.33a48.74,48.74,0,0,1-9.72,29.3V567H887.54V543.73a49,49,0,0,1,50.67-77.26,46.94,46.94,0,0,1,74,.35,49,49,0,0,1,60.8,47.51Z"/><path class="cls-12" d="M1063.76,567.48H887V543.9A49,49,0,0,1,877,514a49.48,49.48,0,0,1,61-48.09,47.45,47.45,0,0,1,74.36.34,49.53,49.53,0,0,1,61.1,48.08,49.07,49.07,0,0,1-9.72,29.47Zm-175.72-1h174.72v-23l.1-.13A48.47,48.47,0,0,0,1024,465.88a48.69,48.69,0,0,0-11.71,1.42l-.32.08-.2-.26a46.45,46.45,0,0,0-73.19-.34l-.2.25-.31-.08A48.5,48.5,0,0,0,878,514a48,48,0,0,0,10,29.43l.1.13Z"/><rect class="cls-13" x="843.2" y="539.61" width="9.24" height="30.38" transform="translate(123.32 -153.51) rotate(11.15)"/><rect class="cls-13" x="848.19" y="561.79" width="9.24" height="30.38" transform="translate(127.71 -154.06) rotate(11.15)"/><polygon class="cls-13" points="846.1 619.95 863.51 591.21 853.07 588.99 846.1 619.95"/><rect class="cls-13" x="913.43" y="523.98" width="9.24" height="30.38" transform="translate(121.63 -167.39) rotate(11.15)"/><rect class="cls-13" x="918.41" y="546.16" width="9.24" height="30.38" transform="translate(126.01 -167.94) rotate(11.15)"/><polygon class="cls-13" points="916.32 604.32 933.73 575.58 923.29 573.36 916.32 604.32"/><rect class="cls-13" x="986.43" y="539.98" width="9.24" height="30.38" transform="translate(126.1 -181.21) rotate(11.15)"/><rect class="cls-13" x="991.41" y="562.16" width="9.24" height="30.38" transform="translate(130.48 -181.76) rotate(11.15)"/><polygon class="cls-13" points="989.32 620.32 1006.73 591.58 996.29 589.36 989.32 620.32"/></g></svg>