<svg xmlns="http://www.w3.org/2000/svg" viewBox="0 0 1920 1080"><defs><style>.cls-1{fill:none;stroke:#fff92c;}.cls-1,.cls-11,.cls-5,.cls-8,.cls-9{stroke-miterlimit:10;}.cls-2{fill:#f93;}.cls-3{fill:#ff3;}.cls-4,.cls-8{fill:#ff0;}.cls-5{fill:#cff;}.cls-11,.cls-5{stroke:#666;}.cls-6,.cls-9{fill:#9fc;}.cls-7{fill:#fff;}.cls-8,.cls-9{stroke:#fff;}.cls-10{fill:#3cc;}.cls-11{fill:#03c;}.cls-12{fill:#cc0;}.cls-13{fill:#699;}.cls-14{fill:#666;}.cls-15{fill:#fc3;}</style></defs><g id="sol-varm"><line class="cls-1" x1="390.5" y1="305.5" x2="388.5" y2="305.5"/></g><g id="sol-varm_sky"><circle class="cls-2" cx="494.42" cy="817.55" r="75.62"/><rect class="cls-3" x="488.31" y="904.31" width="10" height="51" rx="5"/><rect class="cls-3" x="488.31" y="683.31" width="10" height="51" rx="5"/><rect class="cls-3" x="602.31" y="794.31" width="10" height="51" rx="5" transform="translate(-212.5 1427.12) rotate(-90)"/><rect class="cls-3" x="374.31" y="789.31" width="10" height="51" rx="5" transform="translate(-435.5 1194.12) rotate(-90)"/><rect class="cls-2" x="578.69" y="882.96" width="10.15" height="60.99" rx="5" transform="translate(-474.93 680.33) rotate(-45)"/><rect class="cls-2" x="398.46" y="875.42" width="10" height="60.69" rx="5" transform="translate(-13.67 1805.31) rotate(-131.11)"/><rect class="cls-2" x="396.86" y="704.22" width="10" height="60.2" rx="5" transform="translate(-401.54 499.24) rotate(-45)"/><rect class="cls-2" x="590.73" y="708.14" width="10" height="60.58" rx="5" transform="translate(431.09 1672.8) rotate(-131.11)"/><circle class="cls-4" cx="494.81" cy="817.81" r="53"/><path class="cls-5" d="M638.81,890.23A59.07,59.07,0,0,1,627,925.75v28.31H414V925.87a59.37,59.37,0,0,1,61.43-93.66,56.92,56.92,0,0,1,89.68.42,59.39,59.39,0,0,1,73.7,57.6Z"/></g><g id="sky"><path class="cls-5" d="M620,157a72.67,72.67,0,0,1-14.5,43.68V235.5h-262V200.83a73,73,0,0,1,75.55-115.2,70,70,0,0,1,110.3.52A73.06,73.06,0,0,1,620,157Z"/></g><g id="lille-sol_sky"><circle class="cls-3" cx="1226.87" cy="430.51" r="42.14"/><rect class="cls-3" x="1223.46" y="478.87" width="5.57" height="28.42" rx="2.79"/><rect class="cls-3" x="1223.46" y="355.69" width="5.57" height="28.42" rx="2.79"/><rect class="cls-3" x="1287" y="417.56" width="5.57" height="28.42" rx="2.79" transform="translate(858.02 1721.56) rotate(-90)"/><rect class="cls-3" x="1159.93" y="414.77" width="5.57" height="28.42" rx="2.79" transform="translate(733.73 1591.7) rotate(-90)"/><rect class="cls-3" x="1273.84" y="466.97" width="5.66" height="33.99" rx="2.83" transform="translate(31.71 1044.49) rotate(-45)"/><rect class="cls-3" x="1173.39" y="462.76" width="5.57" height="33.83" rx="2.79" transform="translate(1588.15 1681.24) rotate(-131.11)"/><rect class="cls-3" x="1172.5" y="367.35" width="5.57" height="33.55" rx="2.79" transform="translate(72.61 943.56) rotate(-45)"/><rect class="cls-3" x="1280.55" y="369.53" width="5.57" height="33.77" rx="2.79" transform="translate(1836.03 1607.39) rotate(-131.11)"/><path class="cls-5" d="M1445,517a72.67,72.67,0,0,1-14.5,43.68V595.5h-262V560.83a73,73,0,0,1,75.55-115.2,70,70,0,0,1,110.3.52A73.06,73.06,0,0,1,1445,517Z"/></g><g id="sol_sky"><circle class="cls-3" cx="529.35" cy="472.63" r="75.62"/><rect class="cls-3" x="523.23" y="559.38" width="10" height="51" rx="5"/><rect class="cls-3" x="523.23" y="338.38" width="10" height="51" rx="5"/><rect class="cls-3" x="637.23" y="449.38" width="10" height="51" rx="5" transform="translate(167.35 1117.12) rotate(-90)"/><rect class="cls-3" x="409.23" y="444.38" width="10" height="51" rx="5" transform="translate(-55.65 884.12) rotate(-90)"/><rect class="cls-3" x="613.61" y="538.03" width="10.15" height="60.99" rx="5" transform="translate(-220.8 604) rotate(-45)"/><rect class="cls-3" x="433.39" y="530.49" width="10" height="60.69" rx="5" transform="translate(304.09 1259.9) rotate(-131.11)"/><rect class="cls-3" x="431.78" y="359.3" width="10" height="60.2" rx="5" transform="translate(-147.42 422.91) rotate(-45)"/><rect class="cls-3" x="625.65" y="363.21" width="10" height="60.58" rx="5" transform="translate(748.85 1127.39) rotate(-131.11)"/><path class="cls-5" d="M691,546.18a59.06,59.06,0,0,1-11.79,35.51V610h-213V581.81a59.37,59.37,0,0,1,61.42-93.66,56.92,56.92,0,0,1,89.68.42A59.43,59.43,0,0,1,691,546.18Z"/></g><g id="sol_kold"><circle class="cls-6" cx="155.04" cy="461.63" r="75.12"/><path class="cls-7" d="M155,387a74.62,74.62,0,1,1-74.62,74.61A74.69,74.69,0,0,1,155,387m0-1a75.62,75.62,0,1,0,75.61,75.61A75.62,75.62,0,0,0,155,386Z"/><rect class="cls-8" x="148.92" y="548.38" width="10" height="51" rx="5"/><rect class="cls-8" x="148.92" y="327.38" width="10" height="51" rx="5"/><rect class="cls-8" x="262.92" y="438.38" width="10" height="51" rx="5" transform="translate(-195.96 731.81) rotate(-90)"/><rect class="cls-8" x="34.92" y="433.38" width="10" height="51" rx="5" transform="translate(-418.96 498.81) rotate(-90)"/><rect class="cls-9" x="239.3" y="527.03" width="10.15" height="60.99" rx="5" transform="translate(-322.66 336.1) rotate(-45)"/><rect class="cls-9" x="59.08" y="519.49" width="10" height="60.69" rx="5" transform="translate(-308.05 959.66) rotate(-131.11)"/><rect class="cls-9" x="57.48" y="348.3" width="10" height="60.2" rx="5" transform="translate(-249.27 155.01) rotate(-45)"/><rect class="cls-9" x="251.34" y="352.21" width="10" height="60.58" rx="5" transform="translate(136.71 827.15) rotate(-131.11)"/><circle class="cls-4" cx="155" cy="462" r="53"/><circle class="cls-2" cx="153.62" cy="154.75" r="75.62"/><rect class="cls-3" x="147.5" y="241.5" width="10" height="51" rx="5"/><rect class="cls-3" x="147.5" y="20.5" width="10" height="51" rx="5"/><rect class="cls-3" x="261.5" y="131.5" width="10" height="51" rx="5" transform="translate(109.5 423.5) rotate(-90)"/><rect class="cls-3" x="33.5" y="126.5" width="10" height="51" rx="5" transform="translate(-113.5 190.5) rotate(-90)"/><rect class="cls-2" x="237.88" y="220.15" width="10.15" height="60.99" rx="5" transform="translate(-106.07 245.21) rotate(-45)"/><rect class="cls-2" x="57.66" y="212.61" width="10" height="60.69" rx="5" transform="translate(-79.19 449.91) rotate(-131.11)"/><rect class="cls-2" x="56.05" y="41.41" width="10" height="60.2" rx="5" transform="translate(-32.69 64.12) rotate(-45)"/><rect class="cls-2" x="249.92" y="45.33" width="10" height="60.58" rx="5" transform="translate(365.56 317.4) rotate(-131.11)"/><circle class="cls-4" cx="154" cy="155" r="53"/></g><g id="lill-kold-sol_sky"><path class="cls-6" d="M1611.46,488.88a47.34,47.34,0,1,1,47.33-47.34A47.39,47.39,0,0,1,1611.46,488.88Z"/><path class="cls-7" d="M1611.46,394.71a46.84,46.84,0,1,1-46.84,46.83,46.89,46.89,0,0,1,46.84-46.83m0-1a47.84,47.84,0,1,0,47.83,47.83,47.83,47.83,0,0,0-47.83-47.83Z"/><rect class="cls-8" x="1607.59" y="496.42" width="6.33" height="32.26" rx="3.16"/><rect class="cls-8" x="1607.59" y="356.62" width="6.33" height="32.26" rx="3.16"/><rect class="cls-8" x="1679.71" y="426.84" width="6.33" height="32.26" rx="3.16" transform="translate(1239.9 2125.84) rotate(-90)"/><rect class="cls-8" x="1535.47" y="423.67" width="6.33" height="32.26" rx="3.16" transform="translate(1098.83 1978.44) rotate(-90)"/><rect class="cls-9" x="1664.76" y="482.92" width="6.42" height="38.59" rx="3.21" transform="translate(133.42 1326.53) rotate(-45)"/><rect class="cls-9" x="1550.75" y="478.15" width="6.33" height="38.39" rx="3.16" transform="matrix(-0.66, -0.75, 0.75, -0.66, 2200.95, 1995.12)"/><rect class="cls-9" x="1549.74" y="369.85" width="6.33" height="38.09" rx="3.16" transform="translate(179.85 1211.97) rotate(-45)"/><rect class="cls-9" x="1672.38" y="372.32" width="6.33" height="38.33" rx="3.16" transform="translate(2482.31 1911.29) rotate(-131.11)"/><circle class="cls-4" cx="1611.43" cy="441.78" r="33.53"/><path class="cls-5" d="M1829,516a72.67,72.67,0,0,1-14.5,43.68V594.5h-262V559.83a73,73,0,0,1,75.55-115.2,70,70,0,0,1,110.3.52A73.06,73.06,0,0,1,1829,516Z"/></g><g id="sne"><path class="cls-5" d="M1580,157a72.67,72.67,0,0,1-14.5,43.68V235.5h-262V200.83a73,73,0,0,1,75.55-115.2,70,70,0,0,1,110.3.52A73.06,73.06,0,0,1,1580,157Z"/><path class="cls-10" d="M1369,244.5a4.51,4.51,0,0,1-4.5,4.5h-10.6l6.9,7.64a4.5,4.5,0,1,1-6.68,6L1348,255.9v9.6a4.5,4.5,0,0,1-9,0V254.1l-8.18,7.39a4.5,4.5,0,1,1-6-6.67l6.44-5.82h-8.73a4.5,4.5,0,0,1,0-9h11.14l-7.67-8.49a4.5,4.5,0,0,1,6.67-6l6.36,7v-9a4.5,4.5,0,0,1,9,0v10.34l8-7.18a4.5,4.5,0,0,1,6,6.68l-7.37,6.66h9.89A4.51,4.51,0,0,1,1369,244.5Z"/><path class="cls-10" d="M1454,241.5a4.51,4.51,0,0,1-4.5,4.5h-10.6l6.9,7.64a4.5,4.5,0,1,1-6.68,6L1433,252.9v9.6a4.5,4.5,0,0,1-9,0V251.1l-8.18,7.39a4.5,4.5,0,1,1-6-6.67l6.44-5.82h-8.73a4.5,4.5,0,0,1,0-9h11.14l-7.67-8.49a4.5,4.5,0,0,1,6.67-6l6.36,7v-9a4.5,4.5,0,0,1,9,0v10.34l8-7.18a4.5,4.5,0,0,1,6,6.68l-7.37,6.66h9.89A4.51,4.51,0,0,1,1454,241.5Z"/><path class="cls-10" d="M1409,198.5a4.51,4.51,0,0,1-4.5,4.5h-10.6l6.9,7.64a4.5,4.5,0,1,1-6.68,6L1388,209.9v9.6a4.5,4.5,0,0,1-9,0V208.1l-8.18,7.39a4.5,4.5,0,1,1-6-6.67l6.44-5.82h-8.73a4.5,4.5,0,0,1,0-9h11.14l-7.67-8.49a4.5,4.5,0,0,1,6.67-6l6.36,7v-9a4.5,4.5,0,0,1,9,0v10.34l8-7.18a4.5,4.5,0,0,1,6,6.68l-7.37,6.66h9.89A4.51,4.51,0,0,1,1409,198.5Z"/><path class="cls-10" d="M1548,244.5a4.51,4.51,0,0,1-4.5,4.5h-10.6l6.9,7.64a4.5,4.5,0,1,1-6.68,6L1527,255.9v9.6a4.5,4.5,0,0,1-9,0V254.1l-8.18,7.39a4.5,4.5,0,1,1-6-6.67l6.44-5.82h-8.73a4.5,4.5,0,0,1,0-9h11.14l-7.67-8.49a4.5,4.5,0,0,1,6.67-6l6.36,7v-9a4.5,4.5,0,0,1,9,0v10.34l8-7.18a4.5,4.5,0,0,1,6,6.68l-7.37,6.66h9.89A4.51,4.51,0,0,1,1548,244.5Z"/><path class="cls-10" d="M1505,198.5a4.51,4.51,0,0,1-4.5,4.5h-10.6l6.9,7.64a4.5,4.5,0,1,1-6.68,6L1484,209.9v9.6a4.5,4.5,0,0,1-9,0V208.1l-8.18,7.39a4.5,4.5,0,1,1-6-6.67l6.44-5.82h-8.73a4.5,4.5,0,0,1,0-9h11.14l-7.67-8.49a4.5,4.5,0,0,1,6.67-6l6.36,7v-9a4.5,4.5,0,0,1,9,0v10.34l8-7.18a4.5,4.5,0,0,1,6,6.68l-7.37,6.66h9.89A4.51,4.51,0,0,1,1505,198.5Z"/></g><g id="sol_sne"><circle class="cls-6" cx="1319.17" cy="785.14" r="47.34"/><path class="cls-7" d="M1319.17,738.3a46.84,46.84,0,1,1-46.84,46.84,46.89,46.89,0,0,1,46.84-46.84m0-1A47.84,47.84,0,1,0,1367,785.14a47.84,47.84,0,0,0-47.83-47.84Z"/><rect class="cls-8" x="1315.3" y="840.02" width="6.33" height="32.26" rx="3.16"/><rect class="cls-8" x="1315.3" y="700.21" width="6.33" height="32.26" rx="3.16"/><rect class="cls-8" x="1387.42" y="770.43" width="6.33" height="32.26" rx="3.16" transform="translate(604.02 2177.14) rotate(-90)"/><rect class="cls-8" x="1243.18" y="767.27" width="6.33" height="32.26" rx="3.16" transform="translate(462.94 2029.74) rotate(-90)"/><rect class="cls-9" x="1372.47" y="826.51" width="6.42" height="38.59" rx="3.21" transform="translate(-195.15 1220.49) rotate(-45)"/><rect class="cls-9" x="1258.46" y="821.74" width="6.33" height="38.39" rx="3.16" transform="translate(1457.6 2344.43) rotate(-131.11)"/><rect class="cls-9" x="1257.45" y="713.44" width="6.33" height="38.09" rx="3.16" transform="translate(-148.72 1105.93) rotate(-45)"/><rect class="cls-9" x="1380.09" y="715.92" width="6.33" height="38.33" rx="3.16" transform="translate(1738.96 2260.6) rotate(-131.11)"/><circle class="cls-4" cx="1319.14" cy="785.37" r="33.53"/><path class="cls-5" d="M1536.71,870.58a62.48,62.48,0,0,1-12.47,37.57v30H1298.9V908.28a62.79,62.79,0,0,1,65-99.08,60.21,60.21,0,0,1,94.87.44,62.83,62.83,0,0,1,78,60.94Z"/><path class="cls-10" d="M1357.06,950.49a3.62,3.62,0,0,1-3.62,3.62h-8.52l5.55,6.15a3.62,3.62,0,0,1-5.37,4.85l-4.92-5.45v7.72a3.62,3.62,0,0,1-7.24,0v-9.17l-6.58,5.95a3.62,3.62,0,0,1-4.85-5.37l5.18-4.68h-7a3.62,3.62,0,1,1,0-7.23h9l-6.17-6.83a3.61,3.61,0,0,1,2.69-6,3.55,3.55,0,0,1,2.67,1.19l5.12,5.66v-7.25a3.62,3.62,0,0,1,7.24,0v8.31l6.39-5.77a3.62,3.62,0,0,1,4.85,5.37l-5.93,5.36h8A3.62,3.62,0,0,1,1357.06,950.49Z"/><path class="cls-10" d="M1425.41,948.08a3.62,3.62,0,0,1-3.62,3.62h-8.52l5.55,6.14a3.62,3.62,0,1,1-5.37,4.86l-4.92-5.45V965a3.62,3.62,0,1,1-7.24,0V955.8l-6.58,5.94a3.61,3.61,0,1,1-4.85-5.36l5.18-4.68h-7a3.63,3.63,0,0,1-3.62-3.62,3.64,3.64,0,0,1,3.62-3.62h9l-6.17-6.82a3.63,3.63,0,0,1,.26-5.11,3.61,3.61,0,0,1,5.1.26l5.12,5.66V931.2a3.62,3.62,0,0,1,7.24,0v8.31l6.39-5.77a3.62,3.62,0,0,1,4.85,5.37l-5.93,5.35h8A3.63,3.63,0,0,1,1425.41,948.08Z"/><path class="cls-10" d="M1389.23,913.51a3.62,3.62,0,0,1-3.62,3.61h-8.53l5.55,6.15a3.62,3.62,0,1,1-5.37,4.85l-4.92-5.45v7.72a3.62,3.62,0,1,1-7.24,0v-9.17l-6.57,5.95a3.62,3.62,0,1,1-4.85-5.37l5.18-4.68h-7a3.62,3.62,0,1,1,0-7.23h9l-6.16-6.83a3.61,3.61,0,1,1,5.36-4.85l5.11,5.66v-7.25a3.62,3.62,0,1,1,7.24,0v8.31l6.39-5.77a3.62,3.62,0,0,1,4.85,5.37l-5.92,5.36h7.95A3.63,3.63,0,0,1,1389.23,913.51Z"/><path class="cls-10" d="M1501,950.49a3.62,3.62,0,0,1-3.62,3.62h-8.52l5.55,6.15a3.62,3.62,0,0,1-5.38,4.85l-4.92-5.45v7.72a3.62,3.62,0,1,1-7.23,0v-9.17l-6.58,5.95a3.62,3.62,0,1,1-4.85-5.37l5.18-4.68h-7a3.62,3.62,0,1,1,0-7.23h9l-6.17-6.83a3.61,3.61,0,1,1,5.36-4.85l5.12,5.66v-7.25a3.62,3.62,0,1,1,7.23,0v8.31l6.4-5.77a3.62,3.62,0,0,1,4.85,5.37l-5.93,5.36h8A3.62,3.62,0,0,1,1501,950.49Z"/><path class="cls-10" d="M1466.42,913.51a3.62,3.62,0,0,1-3.62,3.61h-8.52l5.55,6.15a3.62,3.62,0,0,1-5.37,4.85l-4.92-5.45v7.72a3.62,3.62,0,1,1-7.24,0v-9.17l-6.58,5.95a3.62,3.62,0,0,1-4.85-5.37l5.18-4.68h-7a3.62,3.62,0,1,1,0-7.23h9l-6.17-6.83a3.61,3.61,0,0,1,2.69-6,3.55,3.55,0,0,1,2.67,1.19l5.12,5.66v-7.25a3.62,3.62,0,0,1,3.62-3.62,3.64,3.64,0,0,1,3.62,3.62v8.31l6.39-5.77a3.62,3.62,0,0,1,4.85,5.37l-5.93,5.36h8A3.62,3.62,0,0,1,1466.42,913.51Z"/></g><g id="sky_regn"><path class="cls-5" d="M948,157a72.67,72.67,0,0,1-14.5,43.68V235.5h-262V200.83a73,73,0,0,1,75.55-115.2,70,70,0,0,1,110.3.52A73.06,73.06,0,0,1,948,157Z"/><path class="cls-11" d="M711.28,251.61a12.39,12.39,0,0,1-24.78,0c0-6.85,12.39-29.11,12.39-29.11S711.28,244.76,711.28,251.61Z"/><path class="cls-11" d="M817.24,217.24a12.4,12.4,0,0,1-24.79,0c0-6.85,12.4-29.11,12.4-29.11S817.24,210.39,817.24,217.24Z"/><path class="cls-11" d="M781.24,251.24a12.4,12.4,0,0,1-24.79,0c0-6.85,12.4-29.11,12.4-29.11S781.24,244.39,781.24,251.24Z"/><path class="cls-11" d="M746.24,217.24a12.4,12.4,0,0,1-24.79,0c0-6.85,12.4-29.11,12.4-29.11S746.24,210.39,746.24,217.24Z"/><path class="cls-11" d="M922.24,251.24a12.4,12.4,0,0,1-24.79,0c0-6.85,12.4-29.11,12.4-29.11S922.24,244.39,922.24,251.24Z"/><path class="cls-11" d="M887.24,217.24a12.4,12.4,0,0,1-24.79,0c0-6.85,12.4-29.11,12.4-29.11S887.24,210.39,887.24,217.24Z"/><path class="cls-11" d="M852.24,251.24a12.4,12.4,0,0,1-24.79,0c0-6.85,12.4-29.11,12.4-29.11S852.24,244.39,852.24,251.24Z"/></g><g id="nat"><path class="cls-12" d="M147.57,919.85c-36.25,0-65.64-26-65.64-58,0-30.06,25.9-54.78,59-57.69a73.05,73.05,0,1,0,27.44,112.67A73.38,73.38,0,0,1,147.57,919.85Z"/><polygon class="cls-12" points="190.14 819.62 182.13 815.01 173.81 819.02 175.7 809.95 169.33 803.24 178.51 802.24 182.9 794.08 186.68 802.53 195.76 804.2 188.91 810.43 190.14 819.62"/><polygon class="cls-12" points="203.86 838.67 197.6 835.07 191.1 838.21 192.58 831.11 187.6 825.87 194.77 825.09 198.2 818.71 201.15 825.32 208.25 826.62 202.9 831.49 203.86 838.67"/><polygon class="cls-12" points="179.29 855.57 171.28 850.96 162.96 854.98 164.85 845.9 158.48 839.19 167.66 838.19 172.04 830.03 175.82 838.49 184.91 840.15 178.06 846.38 179.29 855.57"/></g><g id="overskyet"><path class="cls-13" d="M1255,137a57.68,57.68,0,0,1-11.52,34.69v27.66H1035.41V171.8a58,58,0,0,1,60-91.49,55.59,55.59,0,0,1,87.6.42A58,58,0,0,1,1255,137Z"/><path class="cls-14" d="M1244,199.84H1034.91V172A58,58,0,0,1,1023,136.6a58.51,58.51,0,0,1,72.22-56.85,56.09,56.09,0,0,1,88,.41A58.54,58.54,0,0,1,1255.5,137,57.94,57.94,0,0,1,1244,171.85Zm-208.07-1H1243V171.52l.1-.14A57,57,0,0,0,1254.5,137a57.53,57.53,0,0,0-71.37-55.78l-.32.08-.2-.26a55.09,55.09,0,0,0-86.81-.41l-.2.26-.31-.08A57.49,57.49,0,0,0,1024,136.6a56.91,56.91,0,0,0,11.81,34.9l.1.13Z"/><path class="cls-13" d="M1214,170.29a60,60,0,0,1-12,36v28.73H985.88v-28.6a60.24,60.24,0,0,1,62.33-95.05,57.75,57.75,0,0,1,91,.43A60.29,60.29,0,0,1,1214,170.29Z"/><path class="cls-14" d="M1202.54,235.56H985.38V206.62A60.11,60.11,0,0,1,973,169.88a60.75,60.75,0,0,1,75-59,58.25,58.25,0,0,1,91.39.43,60.74,60.74,0,0,1,63.13,95.22Zm-216.16-1h215.16V206.17l.1-.14a59.75,59.75,0,0,0-62.31-93.7l-.32.07-.2-.25a57.25,57.25,0,0,0-90.21-.43l-.2.25-.31-.07a59.73,59.73,0,0,0-61.82,94.25l.11.14Z"/><path class="cls-13" d="M1255,182.79a48.71,48.71,0,0,1-9.72,29.29v23.36H1069.56V212.18a49,49,0,0,1,50.67-77.26,46.94,46.94,0,0,1,74,.35,49,49,0,0,1,60.8,47.52Z"/><path class="cls-14" d="M1245.78,235.94H1069.06V212.35a49,49,0,0,1-10.06-29.9,49.48,49.48,0,0,1,61-48.09,47.44,47.44,0,0,1,74.36.35,49.47,49.47,0,0,1,51.38,77.54Zm-175.72-1h174.72v-23l.1-.14a48.48,48.48,0,0,0-50.55-76l-.32.08-.2-.26a46.45,46.45,0,0,0-73.19-.35l-.2.26-.31-.08a48.46,48.46,0,0,0-60.11,47,48,48,0,0,0,10,29.43l.1.14Z"/></g><g id="overskyet_sne_regn"><path class="cls-13" d="M1064.9,828.38a57.73,57.73,0,0,1-11.51,34.69v27.66H845.32V863.19a58,58,0,0,1,60-91.48,55.59,55.59,0,0,1,87.59.41,58,58,0,0,1,72,56.26Z"/><path class="cls-14" d="M1053.89,891.23H844.82V863.36A57.89,57.89,0,0,1,832.9,828a58.51,58.51,0,0,1,72.22-56.85,56.11,56.11,0,0,1,88,.41,58.5,58.5,0,0,1,60.78,91.69Zm-208.07-1h207.07V862.91l.1-.13a57.49,57.49,0,0,0-46.06-91.87A57.62,57.62,0,0,0,993,772.6l-.31.08-.2-.26a55.1,55.1,0,0,0-86.81-.4l-.2.25-.31-.08A57.5,57.5,0,0,0,833.9,828a57,57,0,0,0,11.81,34.9l.11.13Z"/><path class="cls-13" d="M1023.9,861.69a59.92,59.92,0,0,1-12,36v28.73H795.78v-28.6a60.22,60.22,0,0,1,47.85-96.8,60.63,60.63,0,0,1,14.48,1.75,57.75,57.75,0,0,1,91,.43,60.29,60.29,0,0,1,74.79,58.46Z"/><path class="cls-14" d="M1012.44,927H795.28V898a60.16,60.16,0,0,1-12.38-36.75,60.79,60.79,0,0,1,75-59,58.25,58.25,0,0,1,91.39.43,60.74,60.74,0,0,1,63.13,95.22Zm-216.16-1h215.16V897.56l.1-.14a59.75,59.75,0,0,0-62.31-93.7l-.31.08-.2-.26a57.26,57.26,0,0,0-90.22-.43l-.2.25-.31-.07a59.73,59.73,0,0,0-61.81,94.25l.1.14Z"/><path class="cls-13" d="M1064.9,874.18a48.74,48.74,0,0,1-9.72,29.3v23.35H879.46V903.58a49,49,0,0,1,50.67-77.26,47,47,0,0,1,74,.34,49,49,0,0,1,60.79,47.52Z"/><path class="cls-14" d="M1055.68,927.33H879V903.75a49.46,49.46,0,0,1,39.4-79.36,50,50,0,0,1,11.58,1.36,47.46,47.46,0,0,1,74.36.35,49.49,49.49,0,0,1,61.1,48.08,49,49,0,0,1-9.72,29.46Zm-175.72-1h174.72v-23l.1-.13a48.48,48.48,0,0,0-50.55-76l-.32.08-.2-.26a46.44,46.44,0,0,0-73.18-.34l-.2.25-.32-.08a48.46,48.46,0,0,0-50.15,76.47l.1.14Z"/><path class="cls-10" d="M861,935.5a4.51,4.51,0,0,1-4.5,4.5H845.9l6.9,7.64a4.5,4.5,0,0,1-6.68,6L840,946.9v9.6a4.5,4.5,0,0,1-9,0V945.1l-8.18,7.39a4.5,4.5,0,1,1-6-6.67l6.44-5.82H814.5a4.5,4.5,0,0,1,0-9h11.14L818,922.51a4.5,4.5,0,0,1,6.67-6l6.36,7v-9a4.5,4.5,0,0,1,9,0v10.34l8-7.18a4.5,4.5,0,0,1,6,6.68L846.61,931h9.89A4.51,4.51,0,0,1,861,935.5Z"/><path class="cls-10" d="M946,932.5a4.51,4.51,0,0,1-4.5,4.5H930.9l6.9,7.64a4.5,4.5,0,0,1-6.68,6L925,943.9v9.6a4.5,4.5,0,0,1-9,0V942.1l-8.18,7.39a4.5,4.5,0,1,1-6-6.67l6.44-5.82H899.5a4.5,4.5,0,0,1,0-9h11.14L903,919.51a4.5,4.5,0,0,1,6.67-6l6.36,7v-9a4.5,4.5,0,0,1,9,0v10.34l8-7.18a4.5,4.5,0,0,1,6,6.68L931.61,928h9.89A4.51,4.51,0,0,1,946,932.5Z"/><path class="cls-10" d="M901,889.5a4.51,4.51,0,0,1-4.5,4.5H885.9l6.9,7.64a4.5,4.5,0,0,1-6.68,6L880,900.9v9.6a4.5,4.5,0,0,1-9,0V899.1l-8.18,7.39a4.5,4.5,0,1,1-6-6.67l6.44-5.82H854.5a4.5,4.5,0,0,1,0-9h11.14L858,876.51a4.5,4.5,0,0,1,6.67-6l6.36,7v-9a4.5,4.5,0,0,1,9,0v10.34l8-7.18a4.5,4.5,0,0,1,6,6.68L886.61,885h9.89A4.51,4.51,0,0,1,901,889.5Z"/><path class="cls-11" d="M1051.7,940.39a12.39,12.39,0,0,1-24.78,0c0-6.84,12.39-29.11,12.39-29.11S1051.7,933.55,1051.7,940.39Z"/><path class="cls-11" d="M1016.7,906.39a12.39,12.39,0,1,1-24.78,0c0-6.84,12.39-29.11,12.39-29.11S1016.7,899.55,1016.7,906.39Z"/><path class="cls-11" d="M981.7,940.39a12.39,12.39,0,1,1-24.78,0c0-6.84,12.39-29.11,12.39-29.11S981.7,933.55,981.7,940.39Z"/></g><g id="overskyet_lyn"><path class="cls-13" d="M1073,468.54a57.73,57.73,0,0,1-11.51,34.69v27.65H853.39V503.35a58,58,0,0,1,60-91.49,55.6,55.6,0,0,1,87.6.41,58,58,0,0,1,72,56.27Z"/><path class="cls-14" d="M1062,531.38H852.89V503.52A58,58,0,0,1,841,468.14,58.51,58.51,0,0,1,913.2,411.3a56.09,56.09,0,0,1,88,.41,58.5,58.5,0,0,1,72.3,56.83A58,58,0,0,1,1062,503.39Zm-208.08-1H1061V503.06l.09-.13a57.49,57.49,0,0,0-59.95-90.17l-.32.08-.2-.26a55.08,55.08,0,0,0-86.8-.41l-.2.25-.32-.08A57.53,57.53,0,0,0,842,468.14,56.91,56.91,0,0,0,853.79,503l.1.14Z"/><path class="cls-13" d="M1032,501.84a60,60,0,0,1-12,36v28.73H803.86V538a60.24,60.24,0,0,1,62.33-95,57.75,57.75,0,0,1,91,.43A60.25,60.25,0,0,1,1032,501.84Z"/><path class="cls-14" d="M1020.52,567.11H803.36V538.17A60.13,60.13,0,0,1,791,501.43a60.79,60.79,0,0,1,75-59,58.27,58.27,0,0,1,91.39.43,60.77,60.77,0,0,1,75.09,59,60.16,60.16,0,0,1-12,36.2Zm-216.16-1h215.16v-28.4l.1-.13a59.76,59.76,0,0,0-62.31-93.71L957,444l-.2-.26a57.27,57.27,0,0,0-90.22-.42l-.2.25-.31-.08a59.77,59.77,0,0,0-74.09,58,59.17,59.17,0,0,0,12.27,36.27l.11.13Z"/><path class="cls-13" d="M1073,514.33a48.74,48.74,0,0,1-9.72,29.3V567H887.54V543.73a49,49,0,0,1,50.67-77.26,46.94,46.94,0,0,1,74,.35,49,49,0,0,1,60.8,47.51Z"/><path class="cls-14" d="M1063.76,567.48H887V543.9A49,49,0,0,1,877,514a49.48,49.48,0,0,1,61-48.09,47.45,47.45,0,0,1,74.36.34,49.53,49.53,0,0,1,61.1,48.08,49.07,49.07,0,0,1-9.72,29.47Zm-175.72-1h174.72v-23l.1-.13A48.47,48.47,0,0,0,1024,465.88a48.69,48.69,0,0,0-11.71,1.42l-.32.08-.2-.26a46.45,46.45,0,0,0-73.19-.34l-.2.25-.31-.08A48.5,48.5,0,0,0,878,514a48,48,0,0,0,10,29.43l.1.13Z"/><rect class="cls-15" x="843.2" y="539.61" width="9.24" height="30.38" transform="translate(123.32 -153.51) rotate(11.15)"/><rect class="cls-15" x="848.19" y="561.79" width="9.24" height="30.38" transform="translate(127.71 -154.06) rotate(11.15)"/><polygon class="cls-15" points="846.1 619.95 863.51 591.21 853.07 588.99 846.1 619.95"/><rect class="cls-15" x="913.43" y="523.98" width="9.24" height="30.38" transform="translate(121.63 -167.39) rotate(11.15)"/><rect class="cls-15" x="918.41" y="546.16" width="9.24" height="30.38" transform="translate(126.01 -167.94) rotate(11.15)"/><polygon class="cls-15" points="916.32 604.32 933.73 575.58 923.29 573.36 916.32 604.32"/><rect class="cls-15" x="986.43" y="554.98" width="9.24" height="30.38" transform="translate(129 -180.93) rotate(11.15)"/><rect class="cls-15" x="991.41" y="577.16" width="9.24" height="30.38" transform="translate(133.39 -181.47) rotate(11.15)"/><polygon class="cls-15" points="989.32 635.32 1006.73 606.58 996.29 604.36 989.32 635.32"/></g></svg>